<svg xmlns="http://www.w3.org/2000/svg" xmlns:xlink="http://www.w3.org/1999/xlink" width="3780" zoomAndPan="magnify" viewBox="0 0 2835 1417.499962" height="1890" preserveAspectRatio="xMidYMid meet" version="1.0"><defs><g/><clipPath id="5df4e546b0"><path d="M 0.5 163 L 2834.5 163 L 2834.5 1279 L 0.5 1279 Z M 0.5 163 " clip-rule="nonzero"/></clipPath><clipPath id="ec56f64309"><path d="M 0.5 0.140625 L 2834.5 0.140625 L 2834.5 1115.988281 L 0.5 1115.988281 Z M 0.5 0.140625 " clip-rule="nonzero"/></clipPath><clipPath id="b47cc3c812"><rect x="0" width="2835" y="0" height="1116"/></clipPath><clipPath id="ec9587c7bf"><rect x="0" width="2835" y="0" height="1116"/></clipPath></defs><g clip-path="url(#5df4e546b0)"><g transform="matrix(1, 0, 0, 1, 0.000000000000000056, 163)"><g clip-path="url(#ec9587c7bf)"><g clip-path="url(#ec56f64309)"><g transform="matrix(1, 0, 0, 1, 0.000000000000000056, -0.000000000000028422)"><g clip-path="url(#b47cc3c812)"><g fill="#ce7028" fill-opacity="1"><g transform="translate(0.499861, 893.184424)"><g><path d="M 58.109375 0 L 58.109375 -671.21875 L 321.640625 -671.21875 C 372.390625 -671.21875 415.785156 -662.207031 451.828125 -644.1875 C 487.867188 -626.164062 515.421875 -600.785156 534.484375 -568.046875 C 553.554688 -535.316406 563.09375 -496.726562 563.09375 -452.28125 C 563.09375 -408.132812 553.332031 -369.992188 533.8125 -337.859375 C 514.289062 -305.722656 486.210938 -281.09375 449.578125 -263.96875 C 412.941406 -246.851562 368.796875 -238.296875 317.140625 -238.296875 L 140.09375 -238.296875 L 140.09375 -349.578125 L 300.46875 -349.578125 C 327.5 -349.578125 350.019531 -353.554688 368.03125 -361.515625 C 386.050781 -369.472656 399.640625 -381.109375 408.796875 -396.421875 C 417.960938 -411.734375 422.546875 -430.351562 422.546875 -452.28125 C 422.546875 -474.800781 417.960938 -493.796875 408.796875 -509.265625 C 399.640625 -524.734375 386.050781 -536.59375 368.03125 -544.84375 C 350.019531 -553.101562 327.347656 -557.234375 300.015625 -557.234375 L 195.953125 -557.234375 L 195.953125 0 Z M 433.359375 0 L 272.09375 -304.96875 L 420.75 -304.96875 L 585.171875 0 Z M 433.359375 0 "/></g></g></g><g fill="#ce7028" fill-opacity="1"><g transform="translate(591.526822, 893.184424)"><g><path d="M 280.640625 9.90625 C 229.890625 9.90625 186.117188 -0.601562 149.328125 -21.625 C 112.546875 -42.644531 84.164062 -72.375 64.1875 -110.8125 C 44.21875 -149.257812 34.234375 -194.457031 34.234375 -246.40625 C 34.234375 -297.757812 44.144531 -342.734375 63.96875 -381.328125 C 83.789062 -419.921875 111.71875 -450.101562 147.75 -471.875 C 183.789062 -493.644531 225.988281 -504.53125 274.34375 -504.53125 C 307.675781 -504.53125 338.609375 -499.125 367.140625 -488.3125 C 395.671875 -477.5 420.671875 -461.503906 442.140625 -440.328125 C 463.617188 -419.160156 480.285156 -392.734375 492.140625 -361.046875 C 504.003906 -329.367188 509.9375 -292.804688 509.9375 -251.359375 L 509.9375 -213.984375 L 87.84375 -213.984375 L 87.84375 -298.671875 L 444.625 -298.671875 L 382 -276.59375 C 382 -302.414062 377.941406 -324.785156 369.828125 -343.703125 C 361.722656 -362.628906 349.785156 -377.269531 334.015625 -387.625 C 318.253906 -397.988281 298.8125 -403.171875 275.6875 -403.171875 C 252.5625 -403.171875 232.890625 -397.914062 216.671875 -387.40625 C 200.460938 -376.894531 188.078125 -362.476562 179.515625 -344.15625 C 170.953125 -325.84375 166.671875 -304.820312 166.671875 -281.09375 L 166.671875 -221.640625 C 166.671875 -193.703125 171.472656 -169.972656 181.078125 -150.453125 C 190.691406 -130.929688 204.285156 -116.140625 221.859375 -106.078125 C 239.429688 -96.023438 259.925781 -91 283.34375 -91 C 299.257812 -91 313.75 -93.328125 326.8125 -97.984375 C 339.882812 -102.640625 351 -109.394531 360.15625 -118.25 C 369.3125 -127.113281 376.296875 -138 381.109375 -150.90625 L 503.1875 -133.34375 C 495.375 -104.507812 481.332031 -79.351562 461.0625 -57.875 C 440.789062 -36.40625 415.410156 -19.738281 384.921875 -7.875 C 354.441406 3.976562 319.679688 9.90625 280.640625 9.90625 Z M 280.640625 9.90625 "/></g></g></g><g fill="#ce7028" fill-opacity="1"><g transform="translate(1133.902215, 893.184424)"><g><path d="M 55.40625 188.296875 L 55.40625 -497.328125 L 187.40625 -497.328125 L 187.40625 -417.140625 L 193.25 -417.140625 C 200.15625 -431.253906 209.613281 -444.992188 221.625 -458.359375 C 233.644531 -471.722656 249.039062 -482.757812 267.8125 -491.46875 C 286.582031 -500.175781 309.332031 -504.53125 336.0625 -504.53125 C 374.195312 -504.53125 408.65625 -494.691406 439.4375 -475.015625 C 470.21875 -455.347656 494.769531 -426.519531 513.09375 -388.53125 C 531.414062 -350.539062 540.578125 -303.769531 540.578125 -248.21875 C 540.578125 -193.550781 531.640625 -147.148438 513.765625 -109.015625 C 495.898438 -70.878906 471.5 -41.75 440.5625 -21.625 C 409.632812 -1.5 374.5 8.5625 335.15625 8.5625 C 309.332031 8.5625 287.109375 4.277344 268.484375 -4.28125 C 249.867188 -12.84375 234.476562 -23.726562 222.3125 -36.9375 C 210.144531 -50.15625 200.457031 -63.972656 193.25 -78.390625 L 189.65625 -78.390625 L 189.65625 188.296875 Z M 295.0625 -99.5625 C 318.488281 -99.5625 338.160156 -105.789062 354.078125 -118.25 C 369.992188 -130.707031 382.082031 -148.125 390.34375 -170.5 C 398.601562 -192.875 402.734375 -218.925781 402.734375 -248.65625 C 402.734375 -278.09375 398.601562 -303.921875 390.34375 -326.140625 C 382.082031 -348.367188 369.992188 -365.640625 354.078125 -377.953125 C 338.160156 -390.265625 318.488281 -396.421875 295.0625 -396.421875 C 272.238281 -396.421875 252.640625 -390.335938 236.265625 -378.171875 C 219.898438 -366.015625 207.4375 -348.898438 198.875 -326.828125 C 190.320312 -304.753906 186.046875 -278.695312 186.046875 -248.65625 C 186.046875 -218.625 190.398438 -192.492188 199.109375 -170.265625 C 207.816406 -148.046875 220.351562 -130.707031 236.71875 -118.25 C 253.09375 -105.789062 272.539062 -99.5625 295.0625 -99.5625 Z M 295.0625 -99.5625 "/></g></g></g><g fill="#ce7028" fill-opacity="1"><g transform="translate(1708.711914, 893.184424)"><g><path d="M 279.75 9.90625 C 229.59375 9.90625 186.117188 -0.828125 149.328125 -22.296875 C 112.546875 -43.765625 84.164062 -73.796875 64.1875 -112.390625 C 44.21875 -150.984375 34.234375 -195.804688 34.234375 -246.859375 C 34.234375 -298.515625 44.21875 -343.632812 64.1875 -382.21875 C 84.164062 -420.8125 112.546875 -450.84375 149.328125 -472.3125 C 186.117188 -493.789062 229.59375 -504.53125 279.75 -504.53125 C 329.601562 -504.53125 372.921875 -493.789062 409.703125 -472.3125 C 446.492188 -450.84375 474.875 -420.8125 494.84375 -382.21875 C 514.820312 -343.632812 524.8125 -298.515625 524.8125 -246.859375 C 524.8125 -195.804688 514.820312 -150.984375 494.84375 -112.390625 C 474.875 -73.796875 446.492188 -43.765625 409.703125 -22.296875 C 372.921875 -0.828125 329.601562 9.90625 279.75 9.90625 Z M 279.75 -96.40625 C 303.175781 -96.40625 322.921875 -102.859375 338.984375 -115.765625 C 355.046875 -128.679688 367.28125 -146.476562 375.6875 -169.15625 C 384.101562 -191.832031 388.3125 -217.882812 388.3125 -247.3125 C 388.3125 -277.039062 384.101562 -303.164062 375.6875 -325.6875 C 367.28125 -348.21875 355.046875 -365.9375 338.984375 -378.84375 C 322.921875 -391.757812 303.175781 -398.21875 279.75 -398.21875 C 256.320312 -398.21875 236.5 -391.757812 220.28125 -378.84375 C 204.0625 -365.9375 191.820312 -348.21875 183.5625 -325.6875 C 175.3125 -303.164062 171.1875 -277.039062 171.1875 -247.3125 C 171.1875 -217.882812 175.3125 -191.832031 183.5625 -169.15625 C 191.820312 -146.476562 203.984375 -128.679688 220.046875 -115.765625 C 236.117188 -102.859375 256.019531 -96.40625 279.75 -96.40625 Z M 279.75 -96.40625 "/></g></g></g><g fill="#ce7028" fill-opacity="1"><g transform="translate(2267.754873, 893.184424)"><g><path d="M 189.65625 -285.609375 L 189.65625 0 L 55.40625 0 L 55.40625 -497.328125 L 183.34375 -497.328125 L 185.140625 -372.09375 L 173.890625 -372.09375 C 187.398438 -414.132812 207.742188 -446.71875 234.921875 -469.84375 C 262.097656 -492.96875 297.007812 -504.53125 339.65625 -504.53125 C 374.195312 -504.53125 404.378906 -497.019531 430.203125 -482 C 456.035156 -466.988281 476.007812 -445.367188 490.125 -417.140625 C 504.238281 -388.910156 511.296875 -354.972656 511.296875 -315.328125 L 511.296875 0 L 377.046875 0 L 377.046875 -291.453125 C 377.046875 -322.992188 369.085938 -347.546875 353.171875 -365.109375 C 337.253906 -382.679688 315.03125 -391.46875 286.5 -391.46875 C 267.582031 -391.46875 250.835938 -387.335938 236.265625 -379.078125 C 221.703125 -370.816406 210.289062 -358.878906 202.03125 -343.265625 C 193.78125 -327.648438 189.65625 -308.429688 189.65625 -285.609375 Z M 189.65625 -285.609375 "/></g></g></g></g></g></g></g></g></g></svg>