<svg xmlns="http://www.w3.org/2000/svg" xmlns:xlink="http://www.w3.org/1999/xlink" width="3780" zoomAndPan="magnify" viewBox="0 0 2835 1417.499962" height="1890" preserveAspectRatio="xMidYMid meet" version="1.0"><defs><g/><clipPath id="1243ea72b2"><path d="M 0.5 406 L 2834.5 406 L 2834.5 1011 L 0.5 1011 Z M 0.5 406 " clip-rule="nonzero"/></clipPath><clipPath id="252a23c407"><path d="M 0.5 0.894531 L 2834.5 0.894531 L 2834.5 604.285156 L 0.5 604.285156 Z M 0.5 0.894531 " clip-rule="nonzero"/></clipPath><clipPath id="639892251e"><rect x="0" width="2835" y="0" height="605"/></clipPath><clipPath id="7530a81527"><rect x="0" width="2835" y="0" height="605"/></clipPath></defs><g clip-path="url(#1243ea72b2)"><g transform="matrix(1, 0, 0, 1, 0.000000000000000056, 406)"><g clip-path="url(#7530a81527)"><g clip-path="url(#252a23c407)"><g transform="matrix(1, 0, 0, 1, 0.000000000000000056, -0.000000000000113687)"><g clip-path="url(#639892251e)"><g fill="#ce7028" fill-opacity="1"><g transform="translate(0.499861, 483.628886)"><g><path d="M 31.359375 0 L 31.359375 -362.28125 L 113.296875 -362.28125 L 228.3125 -178.46875 C 233.5 -169.875 239.050781 -160.269531 244.96875 -149.65625 C 250.882812 -139.039062 256.960938 -127.25 263.203125 -114.28125 C 269.441406 -101.3125 275.640625 -87.207031 281.796875 -71.96875 L 273.78125 -67.59375 C 272.800781 -80.5625 271.90625 -94.539062 271.09375 -109.53125 C 270.289062 -124.53125 269.644531 -138.914062 269.15625 -152.6875 C 268.664062 -166.46875 268.421875 -177.976562 268.421875 -187.21875 L 268.421875 -362.28125 L 344.046875 -362.28125 L 344.046875 0 L 261.859375 0 L 157.5625 -166.546875 C 150.582031 -177.898438 143.8125 -189.367188 137.25 -200.953125 C 130.6875 -212.546875 123.796875 -225.472656 116.578125 -239.734375 C 109.367188 -254.003906 100.984375 -270.617188 91.421875 -289.578125 L 101.640625 -291.53125 C 102.609375 -273.863281 103.535156 -257.046875 104.421875 -241.078125 C 105.316406 -225.109375 106.003906 -210.71875 106.484375 -197.90625 C 106.972656 -185.101562 107.21875 -174.734375 107.21875 -166.796875 L 107.21875 0 Z M 31.359375 0 "/></g></g><g transform="translate(375.904292, 483.628886)"><g><path d="M 105.765625 -362.28125 L 105.765625 0 L 31.359375 0 L 31.359375 -362.28125 Z M 105.765625 -362.28125 "/></g></g><g transform="translate(513.277029, 483.628886)"><g><path d="M 190.140625 5.109375 C 157.878906 5.109375 128.984375 -2.265625 103.453125 -17.015625 C 77.921875 -31.765625 57.820312 -53 43.15625 -80.71875 C 28.488281 -108.4375 21.15625 -141.828125 21.15625 -180.890625 C 21.15625 -220.117188 28.53125 -253.632812 43.28125 -281.4375 C 58.03125 -309.238281 78.207031 -330.515625 103.8125 -345.265625 C 129.425781 -360.015625 158.203125 -367.390625 190.140625 -367.390625 C 210.890625 -367.390625 230.21875 -364.46875 248.125 -358.625 C 266.039062 -352.789062 281.882812 -344.28125 295.65625 -333.09375 C 309.4375 -321.914062 320.742188 -308.300781 329.578125 -292.25 C 338.410156 -276.207031 344.207031 -257.972656 346.96875 -237.546875 L 271.828125 -237.546875 C 270.046875 -247.597656 266.804688 -256.59375 262.109375 -264.53125 C 257.410156 -272.476562 251.570312 -279.207031 244.59375 -284.71875 C 237.625 -290.226562 229.679688 -294.398438 220.765625 -297.234375 C 211.859375 -300.078125 202.132812 -301.5 191.59375 -301.5 C 172.46875 -301.5 155.734375 -296.710938 141.390625 -287.140625 C 127.046875 -277.578125 115.984375 -263.835938 108.203125 -245.921875 C 100.421875 -228.015625 96.53125 -206.335938 96.53125 -180.890625 C 96.53125 -155.117188 100.457031 -133.273438 108.3125 -115.359375 C 116.175781 -97.453125 127.238281 -83.878906 141.5 -74.640625 C 155.769531 -65.398438 172.46875 -60.78125 191.59375 -60.78125 C 201.96875 -60.78125 211.613281 -62.238281 220.53125 -65.15625 C 229.445312 -68.070312 237.429688 -72.242188 244.484375 -77.671875 C 251.535156 -83.109375 257.410156 -89.796875 262.109375 -97.734375 C 266.804688 -105.679688 270.128906 -114.679688 272.078125 -124.734375 L 347.203125 -124.734375 C 344.929688 -107.066406 339.703125 -90.453125 331.515625 -74.890625 C 323.335938 -59.328125 312.476562 -45.503906 298.9375 -33.421875 C 285.40625 -21.347656 269.519531 -11.90625 251.28125 -5.09375 C 233.050781 1.707031 212.671875 5.109375 190.140625 5.109375 Z M 190.140625 5.109375 "/></g></g><g transform="translate(880.171646, 483.628886)"><g><path d="M 190.625 5.109375 C 158.53125 5.109375 129.675781 -2.265625 104.0625 -17.015625 C 78.445312 -31.765625 58.222656 -53 43.390625 -80.71875 C 28.566406 -108.4375 21.15625 -141.828125 21.15625 -180.890625 C 21.15625 -220.117188 28.566406 -253.632812 43.390625 -281.4375 C 58.222656 -309.238281 78.445312 -330.515625 104.0625 -345.265625 C 129.675781 -360.015625 158.53125 -367.390625 190.625 -367.390625 C 222.71875 -367.390625 251.53125 -360.015625 277.0625 -345.265625 C 302.59375 -330.515625 322.769531 -309.238281 337.59375 -281.4375 C 352.425781 -253.632812 359.84375 -220.117188 359.84375 -180.890625 C 359.84375 -141.828125 352.425781 -108.394531 337.59375 -80.59375 C 322.769531 -52.800781 302.59375 -31.566406 277.0625 -16.890625 C 251.53125 -2.222656 222.71875 5.109375 190.625 5.109375 Z M 190.625 -60.78125 C 209.425781 -60.78125 225.878906 -65.398438 239.984375 -74.640625 C 254.085938 -83.878906 265.066406 -97.453125 272.921875 -115.359375 C 280.785156 -133.273438 284.71875 -155.117188 284.71875 -180.890625 C 284.71875 -206.828125 280.785156 -228.789062 272.921875 -246.78125 C 265.066406 -264.78125 254.085938 -278.398438 239.984375 -287.640625 C 225.878906 -296.878906 209.425781 -301.5 190.625 -301.5 C 171.976562 -301.5 155.5625 -296.835938 141.375 -287.515625 C 127.195312 -278.191406 116.175781 -264.570312 108.3125 -246.65625 C 100.457031 -228.75 96.53125 -206.828125 96.53125 -180.890625 C 96.53125 -155.117188 100.457031 -133.316406 108.3125 -115.484375 C 116.175781 -97.660156 127.195312 -84.085938 141.375 -74.765625 C 155.5625 -65.441406 171.976562 -60.78125 190.625 -60.78125 Z M 190.625 -60.78125 "/></g></g></g><g fill="#ce7028" fill-opacity="1"><g transform="translate(1261.168286, 483.628886)"><g><path d="M 159.015625 0 L 65.15625 0 L 65.15625 -63.703125 L 155.375 -63.703125 C 178.875 -63.703125 198.523438 -67.914062 214.328125 -76.34375 C 230.128906 -84.769531 242 -97.695312 249.9375 -115.125 C 257.882812 -132.550781 261.859375 -154.640625 261.859375 -181.390625 C 261.859375 -207.972656 257.882812 -229.9375 249.9375 -247.28125 C 242 -264.625 230.164062 -277.507812 214.4375 -285.9375 C 198.71875 -294.363281 179.191406 -298.578125 155.859375 -298.578125 L 63.453125 -298.578125 L 63.453125 -362.28125 L 160.234375 -362.28125 C 196.703125 -362.28125 228.023438 -355.023438 254.203125 -340.515625 C 280.378906 -326.015625 300.554688 -305.226562 314.734375 -278.15625 C 328.921875 -251.082031 336.015625 -218.828125 336.015625 -181.390625 C 336.015625 -143.773438 328.960938 -111.429688 314.859375 -84.359375 C 300.765625 -57.296875 280.460938 -36.46875 253.953125 -21.875 C 227.453125 -7.289062 195.804688 0 159.015625 0 Z M 105.765625 -362.28125 L 105.765625 0 L 31.359375 0 L 31.359375 -362.28125 Z M 105.765625 -362.28125 "/></g></g></g><g fill="#ce7028" fill-opacity="1"><g transform="translate(1618.337372, 483.628886)"><g><path d="M 105.765625 -362.28125 L 105.765625 0 L 31.359375 0 L 31.359375 -362.28125 Z M 105.765625 -362.28125 "/></g></g></g><g fill="#ce7028" fill-opacity="1"><g transform="translate(1755.710125, 483.628886)"><g><path d="M 192.078125 5.109375 C 158.203125 5.109375 128.414062 -2.46875 102.71875 -17.625 C 77.03125 -32.78125 57.015625 -54.257812 42.671875 -82.0625 C 28.328125 -109.863281 21.15625 -142.726562 21.15625 -180.65625 C 21.15625 -219.71875 28.609375 -253.1875 43.515625 -281.0625 C 58.429688 -308.945312 78.65625 -330.304688 104.1875 -345.140625 C 129.71875 -359.972656 158.53125 -367.390625 190.625 -367.390625 C 211.050781 -367.390625 230.132812 -364.429688 247.875 -358.515625 C 265.625 -352.597656 281.390625 -344.125 295.171875 -333.09375 C 308.953125 -322.070312 320.257812 -309.066406 329.09375 -294.078125 C 337.925781 -279.085938 343.554688 -262.515625 345.984375 -244.359375 L 270.375 -244.359375 C 267.9375 -253.273438 264.40625 -261.21875 259.78125 -268.1875 C 255.164062 -275.15625 249.535156 -281.148438 242.890625 -286.171875 C 236.242188 -291.203125 228.664062 -295.015625 220.15625 -297.609375 C 211.65625 -300.203125 202.21875 -301.5 191.84375 -301.5 C 172.875 -301.5 156.21875 -296.796875 141.875 -287.390625 C 127.53125 -277.992188 116.382812 -264.335938 108.4375 -246.421875 C 100.5 -228.515625 96.53125 -206.835938 96.53125 -181.390625 C 96.53125 -155.929688 100.457031 -134.207031 108.3125 -116.21875 C 116.175781 -98.226562 127.320312 -84.488281 141.75 -75 C 156.175781 -65.519531 173.195312 -60.78125 192.8125 -60.78125 C 210.15625 -60.78125 225.144531 -63.984375 237.78125 -70.390625 C 250.425781 -76.796875 260.113281 -85.832031 266.84375 -97.5 C 273.570312 -109.164062 276.9375 -122.863281 276.9375 -138.59375 L 292.984375 -136.40625 L 198.40625 -136.40625 L 198.40625 -192.8125 L 349.390625 -192.8125 L 349.390625 -147.34375 C 349.390625 -116.0625 342.625 -89.03125 329.09375 -66.25 C 315.5625 -43.476562 296.960938 -25.890625 273.296875 -13.484375 C 249.628906 -1.085938 222.554688 5.109375 192.078125 5.109375 Z M 192.078125 5.109375 "/></g></g></g><g fill="#ce7028" fill-opacity="1"><g transform="translate(2127.710662, 483.628886)"><g><path d="M 190.625 5.109375 C 158.53125 5.109375 129.675781 -2.265625 104.0625 -17.015625 C 78.445312 -31.765625 58.222656 -53 43.390625 -80.71875 C 28.566406 -108.4375 21.15625 -141.828125 21.15625 -180.890625 C 21.15625 -220.117188 28.566406 -253.632812 43.390625 -281.4375 C 58.222656 -309.238281 78.445312 -330.515625 104.0625 -345.265625 C 129.675781 -360.015625 158.53125 -367.390625 190.625 -367.390625 C 222.71875 -367.390625 251.53125 -360.015625 277.0625 -345.265625 C 302.59375 -330.515625 322.769531 -309.238281 337.59375 -281.4375 C 352.425781 -253.632812 359.84375 -220.117188 359.84375 -180.890625 C 359.84375 -141.828125 352.425781 -108.394531 337.59375 -80.59375 C 322.769531 -52.800781 302.59375 -31.566406 277.0625 -16.890625 C 251.53125 -2.222656 222.71875 5.109375 190.625 5.109375 Z M 190.625 -60.78125 C 209.425781 -60.78125 225.878906 -65.398438 239.984375 -74.640625 C 254.085938 -83.878906 265.066406 -97.453125 272.921875 -115.359375 C 280.785156 -133.273438 284.71875 -155.117188 284.71875 -180.890625 C 284.71875 -206.828125 280.785156 -228.789062 272.921875 -246.78125 C 265.066406 -264.78125 254.085938 -278.398438 239.984375 -287.640625 C 225.878906 -296.878906 209.425781 -301.5 190.625 -301.5 C 171.976562 -301.5 155.5625 -296.835938 141.375 -287.515625 C 127.195312 -278.191406 116.175781 -264.570312 108.3125 -246.65625 C 100.457031 -228.75 96.53125 -206.828125 96.53125 -180.890625 C 96.53125 -155.117188 100.457031 -133.316406 108.3125 -115.484375 C 116.175781 -97.660156 127.195312 -84.085938 141.375 -74.765625 C 155.5625 -65.441406 171.976562 -60.78125 190.625 -60.78125 Z M 190.625 -60.78125 "/></g></g></g><g fill="#ce7028" fill-opacity="1"><g transform="translate(2508.70719, 483.628886)"><g><path d="M 165.34375 5.34375 C 135.832031 5.34375 110.296875 0.804688 88.734375 -8.265625 C 67.179688 -17.335938 50.445312 -30.75 38.53125 -48.5 C 26.625 -66.25 20.425781 -88.015625 19.9375 -113.796875 L 92.15625 -113.796875 C 92.800781 -101.472656 96.285156 -91.054688 102.609375 -82.546875 C 108.929688 -74.035156 117.441406 -67.628906 128.140625 -63.328125 C 138.835938 -59.035156 151.070312 -56.890625 164.84375 -56.890625 C 178.132812 -56.890625 189.765625 -58.832031 199.734375 -62.71875 C 209.703125 -66.613281 217.441406 -72.046875 222.953125 -79.015625 C 228.472656 -85.984375 231.234375 -94.007812 231.234375 -103.09375 C 231.234375 -111.351562 228.835938 -118.320312 224.046875 -124 C 219.265625 -129.675781 212.210938 -134.539062 202.890625 -138.59375 C 193.578125 -142.644531 182.03125 -146.207031 168.25 -149.28125 L 128.859375 -159.015625 C 97.085938 -166.472656 72.488281 -178.265625 55.0625 -194.390625 C 37.644531 -210.515625 28.9375 -231.707031 28.9375 -257.96875 C 28.9375 -279.851562 34.8125 -298.976562 46.5625 -315.34375 C 58.3125 -331.71875 74.4375 -344.484375 94.9375 -353.640625 C 115.445312 -362.804688 138.992188 -367.390625 165.578125 -367.390625 C 192.484375 -367.390625 215.945312 -362.769531 235.96875 -353.53125 C 255.988281 -344.289062 271.585938 -331.398438 282.765625 -314.859375 C 293.953125 -298.328125 299.789062 -279.125 300.28125 -257.25 L 228.796875 -257.25 C 227.492188 -272.320312 221.207031 -284.070312 209.9375 -292.5 C 198.675781 -300.925781 183.726562 -305.140625 165.09375 -305.140625 C 152.613281 -305.140625 141.832031 -303.316406 132.75 -299.671875 C 123.675781 -296.023438 116.75 -291 111.96875 -284.59375 C 107.1875 -278.195312 104.796875 -270.863281 104.796875 -262.59375 C 104.796875 -254 107.347656 -246.820312 112.453125 -241.0625 C 117.554688 -235.3125 124.601562 -230.53125 133.59375 -226.71875 C 142.59375 -222.914062 152.6875 -219.71875 163.875 -217.125 L 196.9375 -209.09375 C 212.988281 -205.53125 227.703125 -200.789062 241.078125 -194.875 C 254.453125 -188.957031 266 -181.785156 275.71875 -173.359375 C 285.445312 -164.929688 292.90625 -154.960938 298.09375 -143.453125 C 303.28125 -131.941406 305.875 -118.8125 305.875 -104.0625 C 305.875 -81.851562 300.28125 -62.519531 289.09375 -46.0625 C 277.90625 -29.613281 261.859375 -16.929688 240.953125 -8.015625 C 220.046875 0.886719 194.84375 5.34375 165.34375 5.34375 Z M 165.34375 5.34375 "/></g></g></g></g></g></g></g></g></g></svg>